<svg width="16" height="17" viewBox="0 0 16 17" fill="none" xmlns="http://www.w3.org/2000/svg">
<path fill-rule="evenodd" clip-rule="evenodd" d="M11 5C11 6.65685 9.65685 8 8 8C6.34315 8 5 6.65685 5 5C5 3.34315 6.34315 2 8 2C9.65685 2 11 3.34315 11 5ZM13 5C13 7.76142 10.7614 10 8 10C5.23858 10 3 7.76142 3 5C3 2.23858 5.23858 0 8 0C10.7614 0 13 2.23858 13 5ZM15.9862 15.502C15.9147 14.9452 15.784 14.4065 15.6007 13.892C15.1403 12.6004 14.3475 11.4619 13.323 10.5752C13.2523 10.5141 13.1805 10.4541 13.1076 10.3953L13.0989 10.3883C13.058 10.3554 13.0166 10.3228 12.975 10.2906C12.8368 10.1839 12.6693 10.1181 12.4948 10.1121C11.9838 10.0947 11.7243 10.2137 11.5246 10.4395C11.1654 10.8456 11.3611 11.488 11.7565 11.8683C11.7704 11.8817 11.7846 11.8948 11.799 11.9075C11.8142 11.9209 11.8297 11.934 11.8454 11.9466C11.8932 11.985 11.9403 12.0242 11.9868 12.0639C12.1474 12.2014 12.3004 12.3469 12.4452 12.4998C12.9892 13.0745 13.4166 13.7536 13.693 14.4998H11.4762H4.5229H2.30604C2.58242 13.7536 3.00988 13.0745 3.55386 12.4998C3.69653 12.3491 3.84721 12.2056 4.00528 12.0699C4.05422 12.0279 4.10387 11.9867 4.1542 11.9462C4.16987 11.9336 4.18531 11.9206 4.20048 11.9072C4.21483 11.8945 4.22896 11.8815 4.24284 11.8681C4.63843 11.4879 4.83443 10.8455 4.47518 10.4393C4.27556 10.2136 4.01604 10.0945 3.50495 10.1118C3.33034 10.1177 3.16276 10.1835 3.02448 10.2903C2.98294 10.3224 2.94174 10.3549 2.90087 10.3877L2.89191 10.3949C2.81357 10.4581 2.73647 10.5227 2.66065 10.5886C1.64357 11.4734 0.856466 12.6069 0.398401 13.892C0.215026 14.4065 0.0843841 14.9452 0.0128305 15.502C-0.0575638 16.0498 0.396906 16.4998 0.949191 16.4998H2.30604H13.693H15.0499C15.6022 16.4998 16.0566 16.0498 15.9862 15.502Z" fill="#EAEAEA"/>
</svg>
