<svg width="18" height="16" viewBox="0 0 18 16" fill="none" xmlns="http://www.w3.org/2000/svg">
<path fill-rule="evenodd" clip-rule="evenodd" d="M8.3503 1.22747C6.21967 -0.758384 2.80514 1.21299 3.45962 4.0511C3.57204 4.53859 3.28832 5.03 2.80994 5.17639C0.024826 6.02864 0.0248268 9.9714 2.80994 10.8236C3.28832 10.97 3.57204 11.4614 3.45962 11.9489C2.80514 14.787 6.21967 16.7584 8.3503 14.7726C8.71626 14.4315 9.2837 14.4315 9.64967 14.7726C11.7803 16.7584 15.1948 14.787 14.5403 11.9489C14.4279 11.4615 14.7116 10.97 15.19 10.8236C17.9751 9.9714 17.9751 6.02864 15.19 5.17639C14.7116 5.03 14.4279 4.53859 14.5403 4.0511C15.1948 1.21299 11.7803 -0.758383 9.64967 1.22747C9.2837 1.56857 8.71626 1.56857 8.3503 1.22747ZM5.40848 3.60168C5.19728 2.68584 6.29912 2.04969 6.98666 2.69052C8.12076 3.74755 9.8792 3.74755 11.0133 2.69051C11.7008 2.04969 12.8027 2.68585 12.5915 3.60168C12.2431 5.11236 13.1223 6.63521 14.6048 7.08885C15.5035 7.36387 15.5035 8.63617 14.6048 8.91119C13.1223 9.36482 12.2431 10.8877 12.5915 12.3984C12.8027 13.3142 11.7008 13.9503 11.0133 13.3095C9.8792 12.2525 8.12076 12.2525 6.98666 13.3095C6.29912 13.9503 5.19728 13.3142 5.40848 12.3984C5.75685 10.8877 4.87763 9.36482 3.39516 8.91118C2.49642 8.63617 2.49642 7.36387 3.39516 7.08885C4.87763 6.63521 5.75685 5.11236 5.40848 3.60168ZM9.86601 7.50002C10.1421 7.97831 9.97827 8.5899 9.49998 8.86604C9.02169 9.14219 8.4101 8.97831 8.13396 8.50002C7.85781 8.02173 8.02169 7.41014 8.49998 7.13399C8.97827 6.85785 9.58986 7.02173 9.86601 7.50002ZM11.5981 6.50002C12.4265 7.9349 11.9349 9.76967 10.5 10.5981C9.0651 11.4265 7.23033 10.9349 6.40191 9.50002C5.57348 8.06514 6.0651 6.23037 7.49998 5.40194C8.93486 4.57351 10.7696 5.06514 11.5981 6.50002Z" fill="#EAEAEA"/>
</svg>
